# xmcd CD database file
#
# Track frame offsets:
#	150
#	19991
#	41947
#	61448
#	78722
#	105149
#	128533
#	154124
#	171661
#	214665
#	236926
#	259029
#	283538
#	303362
#	328680
#
# Disc length: 4790 seconds
#
# Revision: 3
# Processed by: cddbd v1.5.2PL0 Copyright (c) Steve Scherf et al.
# Submitted via: CDex 1.51
#
DISCID=d612b40f
DTITLE=Milt Jackson - Four Classic Albums Plus  [CD 2-2]
DYEAR=2009
DGENRE=Jazz
TTITLE0=Strollin'  .....  { Album ~ Telefunken Blues - 1955 }
TTITLE1=Sonor
TTITLE2=Blue's Mood
TTITLE3=Skoot
TTITLE4=Telefunken Blues
TTITLE5=Klook's Nook
TTITLE6=Baggin' The Blues
TTITLE7=Inhibitions
TTITLE8=Plenty, Plenty Soul  .....  { Album ~ Plenty, Plenty Soul - 1957 }
TTITLE9=Boogity, Boogity
TTITLE10=Heartstrings
TTITLE11=Sermonette
TTITLE12=The Spirit-Feel
TTITLE13=Ignunt Oil
TTITLE14=Blues At Twilight
EXTD=YEAR: 2009
EXTT0=
EXTT1=
EXTT2=
EXTT3=
EXTT4=
EXTT5=
EXTT6=
EXTT7=
EXTT8=
EXTT9=
EXTT10=
EXTT11=
EXTT12=
EXTT13=
EXTT14=
PLAYORDER=
